<?xml version="1.0" encoding="utf-8"?>
<svg version="1.1" xmlns:xlink="http://www.w3.org/1999/xlink" width="12px" height="12px" viewBox="71 261  12 12" xmlns="http://www.w3.org/2000/svg">
  <path d="M 77 261  C 80.36 261  83 263.64  83 267  C 83 270.36  80.36 273  77 273  C 73.64 273  71 270.36  71 267  C 71 263.64  73.64 261  77 261  Z " fill-rule="nonzero" fill="#ffffff" stroke="none" />
  <path d="M 77 261.5  C 80.08 261.5  82.5 263.92  82.5 267  C 82.5 270.08  80.08 272.5  77 272.5  C 73.92 272.5  71.5 270.08  71.5 267  C 71.5 263.92  73.92 261.5  77 261.5  Z " stroke-width="1" stroke="#797979" fill="none" />
  <path d="M 77 270  C 75.32 270  74 268.68  74 267  C 74 265.32  75.32 264  77 264  C 78.68 264  80 265.32  80 267  C 80 268.68  78.68 270  77 270  " fill-rule="nonzero" fill="#797979" stroke="none" />
</svg>