<?xml version="1.0" encoding="utf-8"?>
<svg version="1.1" xmlns:xlink="http://www.w3.org/1999/xlink" width="12px" height="12px" viewBox="71 227  12 12" xmlns="http://www.w3.org/2000/svg">
  <path d="M 77 227  C 80.36 227  83 229.64  83 233  C 83 236.36  80.36 239  77 239  C 73.64 239  71 236.36  71 233  C 71 229.64  73.64 227  77 227  Z " fill-rule="nonzero" fill="#ffffff" stroke="none" />
  <path d="M 77 227.5  C 80.08 227.5  82.5 229.92  82.5 233  C 82.5 236.08  80.08 238.5  77 238.5  C 73.92 238.5  71.5 236.08  71.5 233  C 71.5 229.92  73.92 227.5  77 227.5  Z " stroke-width="1" stroke="#797979" fill="none" />
  <path d="M 77 236  C 75.32 236  74 234.68  74 233  C 74 231.32  75.32 230  77 230  C 78.68 230  80 231.32  80 233  C 80 234.68  78.68 236  77 236  " fill-rule="nonzero" fill="#797979" stroke="none" />
</svg>