<?xml version="1.0" encoding="utf-8"?>
<svg version="1.1" xmlns:xlink="http://www.w3.org/1999/xlink" width="12px" height="12px" viewBox="71 295  12 12" xmlns="http://www.w3.org/2000/svg">
  <path d="M 77 295  C 80.36 295  83 297.64  83 301  C 83 304.36  80.36 307  77 307  C 73.64 307  71 304.36  71 301  C 71 297.64  73.64 295  77 295  Z " fill-rule="nonzero" fill="#ffffff" stroke="none" />
  <path d="M 77 295.5  C 80.08 295.5  82.5 297.92  82.5 301  C 82.5 304.08  80.08 306.5  77 306.5  C 73.92 306.5  71.5 304.08  71.5 301  C 71.5 297.92  73.92 295.5  77 295.5  Z " stroke-width="1" stroke="#797979" fill="none" />
  <path d="M 77 304  C 75.32 304  74 302.68  74 301  C 74 299.32  75.32 298  77 298  C 78.68 298  80 299.32  80 301  C 80 302.68  78.68 304  77 304  " fill-rule="nonzero" fill="#797979" stroke="none" />
</svg>