<?xml version="1.0" encoding="utf-8"?>
<svg version="1.1" xmlns:xlink="http://www.w3.org/1999/xlink" width="12px" height="12px" viewBox="361 190.5  12 12" xmlns="http://www.w3.org/2000/svg">
  <path d="M 367 190.5  C 370.36 190.5  373 193.14  373 196.5  C 373 199.86  370.36 202.5  367 202.5  C 363.64 202.5  361 199.86  361 196.5  C 361 193.14  363.64 190.5  367 190.5  Z " fill-rule="nonzero" fill="#ffffff" stroke="none" />
  <path d="M 367 191  C 370.08 191  372.5 193.42  372.5 196.5  C 372.5 199.58  370.08 202  367 202  C 363.92 202  361.5 199.58  361.5 196.5  C 361.5 193.42  363.92 191  367 191  Z " stroke-width="1" stroke="#797979" fill="none" />
  <path d="M 367 199.5  C 365.32 199.5  364 198.18  364 196.5  C 364 194.82  365.32 193.5  367 193.5  C 368.68 193.5  370 194.82  370 196.5  C 370 198.18  368.68 199.5  367 199.5  " fill-rule="nonzero" fill="#797979" stroke="none" />
</svg>