<?xml version="1.0" encoding="utf-8"?>
<svg version="1.1" xmlns:xlink="http://www.w3.org/1999/xlink" width="12px" height="12px" viewBox="405 190.5  12 12" xmlns="http://www.w3.org/2000/svg">
  <path d="M 411 190.5  C 414.36 190.5  417 193.14  417 196.5  C 417 199.86  414.36 202.5  411 202.5  C 407.64 202.5  405 199.86  405 196.5  C 405 193.14  407.64 190.5  411 190.5  Z " fill-rule="nonzero" fill="#ffffff" stroke="none" />
  <path d="M 411 191  C 414.08 191  416.5 193.42  416.5 196.5  C 416.5 199.58  414.08 202  411 202  C 407.92 202  405.5 199.58  405.5 196.5  C 405.5 193.42  407.92 191  411 191  Z " stroke-width="1" stroke="#797979" fill="none" />
  <path d="M 411 199.5  C 409.32 199.5  408 198.18  408 196.5  C 408 194.82  409.32 193.5  411 193.5  C 412.68 193.5  414 194.82  414 196.5  C 414 198.18  412.68 199.5  411 199.5  " fill-rule="nonzero" fill="#797979" stroke="none" />
</svg>