<?xml version="1.0" encoding="utf-8"?>
<svg version="1.1" xmlns:xlink="http://www.w3.org/1999/xlink" width="12px" height="12px" viewBox="455 190.5  12 12" xmlns="http://www.w3.org/2000/svg">
  <path d="M 461 190.5  C 464.36 190.5  467 193.14  467 196.5  C 467 199.86  464.36 202.5  461 202.5  C 457.64 202.5  455 199.86  455 196.5  C 455 193.14  457.64 190.5  461 190.5  Z " fill-rule="nonzero" fill="#ffffff" stroke="none" />
  <path d="M 461 191  C 464.08 191  466.5 193.42  466.5 196.5  C 466.5 199.58  464.08 202  461 202  C 457.92 202  455.5 199.58  455.5 196.5  C 455.5 193.42  457.92 191  461 191  Z " stroke-width="1" stroke="#797979" fill="none" />
  <path d="M 461 199.5  C 459.32 199.5  458 198.18  458 196.5  C 458 194.82  459.32 193.5  461 193.5  C 462.68 193.5  464 194.82  464 196.5  C 464 198.18  462.68 199.5  461 199.5  " fill-rule="nonzero" fill="#797979" stroke="none" />
</svg>