<?xml version="1.0" encoding="utf-8"?>
<svg version="1.1" xmlns:xlink="http://www.w3.org/1999/xlink" width="23px" height="23px" xmlns="http://www.w3.org/2000/svg">
  <g transform="matrix(1 0 0 1 -87 -280 )">
    <path d="M 18.95703125 9.748046875  C 19.13671875 9.568359375  19.2265625 9.34375  19.2265625 9.07421875  C 19.2265625 8.79470486111111  19.13671875 8.56510416666667  18.95703125 8.38541666666667  L 17.5944010416667 7.03776041666667  C 17.4047309027778 6.84809027777778  17.1801215277778 6.75325520833333  16.9205729166667 6.75325520833333  C 16.6610243055556 6.75325520833333  16.4364149305556 6.84809027777778  16.2467447916667 7.03776041666667  L 10.1373697916667 13.1321614583333  L 6.75325520833333 9.748046875  C 6.56358506944444 9.55837673611111  6.33897569444444 9.46354166666667  6.07942708333333 9.46354166666667  C 5.81987847222222 9.46354166666667  5.59526909722222 9.55837673611111  5.40559895833333 9.748046875  L 4.04296875 11.095703125  C 3.86328125 11.275390625  3.7734375 11.5049913194444  3.7734375 11.7845052083333  C 3.7734375 12.0540364583333  3.86328125 12.2786458333333  4.04296875 12.4583333333333  L 9.46354166666667 17.87890625  C 9.65321180555556 18.0685763888889  9.87782118055556 18.1634114583333  10.1373697916667 18.1634114583333  C 10.4069010416667 18.1634114583333  10.6365017361111 18.0685763888889  10.826171875 17.87890625  L 18.95703125 9.748046875  Z M 21.4576822916667 5.7275390625  C 22.4858940972222 7.48947482638889  23 9.41362847222222  23 11.5  C 23 13.5863715277778  22.4858940972222 15.5105251736111  21.4576822916667 17.2724609375  C 20.4294704861111 19.0343967013889  19.0343967013889 20.4294704861111  17.2724609375 21.4576822916667  C 15.5105251736111 22.4858940972222  13.5863715277778 23  11.5 23  C 9.41362847222222 23  7.48947482638889 22.4858940972222  5.7275390625 21.4576822916667  C 3.96560329861111 20.4294704861111  2.57052951388889 19.0343967013889  1.54231770833333 17.2724609375  C 0.514105902777778 15.5105251736111  0 13.5863715277778  0 11.5  C 0 9.41362847222222  0.514105902777778 7.48947482638889  1.54231770833333 5.7275390625  C 2.57052951388889 3.96560329861111  3.96560329861111 2.57052951388889  5.7275390625 1.54231770833333  C 7.48947482638889 0.514105902777776  9.41362847222222 0  11.5 0  C 13.5863715277778 0  15.5105251736111 0.514105902777776  17.2724609375 1.54231770833333  C 19.0343967013889 2.57052951388889  20.4294704861111 3.96560329861111  21.4576822916667 5.7275390625  Z " fill-rule="nonzero" fill="#13d937" stroke="none" transform="matrix(1 0 0 1 87 280 )" />
  </g>
</svg>