<?xml version="1.0" encoding="utf-8"?>
<svg version="1.1" xmlns:xlink="http://www.w3.org/1999/xlink" width="13px" height="15px" xmlns="http://www.w3.org/2000/svg">
  <g transform="matrix(1 0 0 1 -485 -449 )">
    <path d="M 1 11.5178571428571  L 1 13.9285714285714  L 3.25 13.9285714285714  L 3.25 11.5178571428571  L 1 11.5178571428571  Z M 3.75 11.5178571428571  L 3.75 13.9285714285714  L 6.25 13.9285714285714  L 6.25 11.5178571428571  L 3.75 11.5178571428571  Z M 1 8.30357142857143  L 1 10.9821428571429  L 3.25 10.9821428571429  L 3.25 8.30357142857143  L 1 8.30357142857143  Z M 3.75 8.30357142857143  L 3.75 10.9821428571429  L 6.25 10.9821428571429  L 6.25 8.30357142857143  L 3.75 8.30357142857143  Z M 1 5.35714285714286  L 1 7.76785714285714  L 3.25 7.76785714285714  L 3.25 5.35714285714286  L 1 5.35714285714286  Z M 6.75 11.5178571428571  L 6.75 13.9285714285714  L 9.25 13.9285714285714  L 9.25 11.5178571428571  L 6.75 11.5178571428571  Z M 3.75 5.35714285714286  L 3.75 7.76785714285714  L 6.25 7.76785714285714  L 6.25 5.35714285714286  L 3.75 5.35714285714286  Z M 9.75 11.5178571428571  L 9.75 13.9285714285714  L 12 13.9285714285714  L 12 11.5178571428571  L 9.75 11.5178571428571  Z M 6.75 8.30357142857143  L 6.75 10.9821428571429  L 9.25 10.9821428571429  L 9.25 8.30357142857143  L 6.75 8.30357142857143  Z M 3.92578125 3.93833705357143  C 3.97526041666667 3.88532366071428  4 3.82254464285714  4 3.75  L 4 1.33928571428571  C 4 1.26674107142857  3.97526041666667 1.20396205357143  3.92578125 1.15094866071429  C 3.87630208333333 1.09793526785714  3.81770833333333 1.07142857142857  3.75 1.07142857142857  L 3.25 1.07142857142857  C 3.18229166666667 1.07142857142857  3.12369791666667 1.09793526785714  3.07421875 1.15094866071429  C 3.02473958333333 1.20396205357143  3 1.26674107142857  3 1.33928571428571  L 3 3.75  C 3 3.82254464285714  3.02473958333333 3.88532366071428  3.07421875 3.93833705357143  C 3.12369791666667 3.99135044642857  3.18229166666667 4.01785714285714  3.25 4.01785714285714  L 3.75 4.01785714285714  C 3.81770833333333 4.01785714285714  3.87630208333333 3.99135044642857  3.92578125 3.93833705357143  Z M 9.75 8.30357142857143  L 9.75 10.9821428571429  L 12 10.9821428571429  L 12 8.30357142857143  L 9.75 8.30357142857143  Z M 6.75 5.35714285714286  L 6.75 7.76785714285714  L 9.25 7.76785714285714  L 9.25 5.35714285714286  L 6.75 5.35714285714286  Z M 9.75 5.35714285714286  L 9.75 7.76785714285714  L 12 7.76785714285714  L 12 5.35714285714286  L 9.75 5.35714285714286  Z M 9.92578125 3.93833705357143  C 9.97526041666667 3.88532366071428  10 3.82254464285714  10 3.75  L 10 1.33928571428571  C 10 1.26674107142857  9.97526041666667 1.20396205357143  9.92578125 1.15094866071429  C 9.87630208333333 1.09793526785714  9.81770833333333 1.07142857142857  9.75 1.07142857142857  L 9.25 1.07142857142857  C 9.18229166666667 1.07142857142857  9.12369791666667 1.09793526785714  9.07421875 1.15094866071429  C 9.02473958333333 1.20396205357143  9 1.26674107142857  9 1.33928571428571  L 9 3.75  C 9 3.82254464285714  9.02473958333333 3.88532366071428  9.07421875 3.93833705357143  C 9.12369791666667 3.99135044642857  9.18229166666667 4.01785714285714  9.25 4.01785714285714  L 9.75 4.01785714285714  C 9.81770833333333 4.01785714285714  9.87630208333333 3.99135044642857  9.92578125 3.93833705357143  Z M 12.703125 2.4609375  C 12.9010416666667 2.67299107142857  13 2.92410714285714  13 3.21428571428571  L 13 13.9285714285714  C 13 14.21875  12.9010416666667 14.4698660714286  12.703125 14.6819196428571  C 12.5052083333333 14.8939732142857  12.2708333333333 15  12 15  L 1 15  C 0.729166666666667 15  0.494791666666667 14.8939732142857  0.296875 14.6819196428571  C 0.0989583333333333 14.4698660714286  0 14.21875  0 13.9285714285714  L 0 3.21428571428571  C 0 2.92410714285714  0.0989583333333333 2.67299107142857  0.296875 2.4609375  C 0.494791666666667 2.24888392857143  0.729166666666667 2.14285714285714  1 2.14285714285714  L 2 2.14285714285714  L 2 1.33928571428571  C 2 0.970982142857144  2.12239583333333 0.655691964285713  2.3671875 0.393415178571429  C 2.61197916666667 0.131138392857143  2.90625 0  3.25 0  L 3.75 0  C 4.09375 0  4.38802083333333 0.131138392857143  4.6328125 0.393415178571429  C 4.87760416666667 0.655691964285713  5 0.970982142857144  5 1.33928571428571  L 5 2.14285714285714  L 8 2.14285714285714  L 8 1.33928571428571  C 8 0.970982142857144  8.12239583333333 0.655691964285713  8.3671875 0.393415178571429  C 8.61197916666667 0.131138392857143  8.90625 0  9.25 0  L 9.75 0  C 10.09375 0  10.3880208333333 0.131138392857143  10.6328125 0.393415178571429  C 10.8776041666667 0.655691964285713  11 0.970982142857144  11 1.33928571428571  L 11 2.14285714285714  L 12 2.14285714285714  C 12.2708333333333 2.14285714285714  12.5052083333333 2.24888392857143  12.703125 2.4609375  Z " fill-rule="nonzero" fill="#8c8c8c" stroke="none" transform="matrix(1 0 0 1 485 449 )" />
  </g>
</svg>