<?xml version="1.0" encoding="utf-8"?>
<svg version="1.1" xmlns:xlink="http://www.w3.org/1999/xlink" width="6px" height="11px" xmlns="http://www.w3.org/2000/svg">
  <g transform="matrix(1 0 0 1 -185 -14 )">
    <path d="M 5.89690721649484 5.24649298597194  C 5.96563573883162 5.31997327989312  6 5.40447561790247  6 5.5  C 6 5.59552438209753  5.96563573883162 5.68002672010688  5.89690721649484 5.75350701402806  L 1.09278350515464 10.8897795591182  C 1.02405498281787 10.9632598530394  0.945017182130584 11  0.855670103092783 11  C 0.766323024054983 11  0.687285223367698 10.9632598530394  0.618556701030928 10.8897795591182  L 0.103092783505155 10.3386773547094  C 0.0343642611683849 10.2651970607882  0 10.1806947227789  0 10.0851703406814  C 0 9.98964595858383  0.0343642611683849 9.90514362057448  0.103092783505155 9.83166332665331  L 4.15463917525773 5.5  L 0.103092783505155 1.16833667334669  C 0.0343642611683849 1.09485637942552  0 1.01035404141617  0 0.914829659318638  C 0 0.819305277221107  0.0343642611683849 0.734802939211756  0.103092783505155 0.661322645290581  L 0.618556701030928 0.110220440881764  C 0.687285223367698 0.0367401469605875  0.766323024054983 0  0.855670103092783 0  C 0.945017182130584 0  1.02405498281787 0.0367401469605875  1.09278350515464 0.110220440881764  L 5.89690721649484 5.24649298597194  Z " fill-rule="nonzero" fill="#000000" stroke="none" transform="matrix(1 0 0 1 185 14 )" />
  </g>
</svg>