<?xml version="1.0" encoding="utf-8"?>
<svg version="1.1" xmlns:xlink="http://www.w3.org/1999/xlink" width="14px" height="14px" xmlns="http://www.w3.org/2000/svg">
  <g transform="matrix(1 0 0 1 -566 -33 )">
    <path d="M 13.6700336700337 10.4646464646465  C 13.8900112233446 10.6846240179573  14 10.9517396184063  14 11.2659932659933  C 14 11.5802469135802  13.8900112233446 11.8473625140292  13.6700336700337 12.0673400673401  L 12.0673400673401 13.6700336700337  C 11.8473625140292 13.8900112233446  11.5802469135802 14  11.2659932659933 14  C 10.9517396184063 14  10.6846240179574 13.8900112233446  10.4646464646465 13.6700336700337  L 7 10.2053872053872  L 3.53535353535354 13.6700336700337  C 3.31537598204265 13.8900112233446  3.04826038159371 14  2.73400673400673 14  C 2.41975308641975 14  2.15263748597082 13.8900112233446  1.93265993265993 13.6700336700337  L 0.32996632996633 12.0673400673401  C 0.109988776655443 11.8473625140292  0 11.5802469135802  0 11.2659932659933  C 0 10.9517396184063  0.109988776655443 10.6846240179573  0.32996632996633 10.4646464646465  L 3.79461279461279 7  L 0.32996632996633 3.53535353535353  C 0.109988776655443 3.31537598204265  0 3.04826038159371  0 2.73400673400673  C 0 2.41975308641975  0.109988776655443 2.15263748597082  0.32996632996633 1.93265993265993  L 1.93265993265993 0.32996632996633  C 2.15263748597082 0.109988776655443  2.41975308641975 0  2.73400673400673 0  C 3.04826038159371 0  3.31537598204265 0.109988776655443  3.53535353535354 0.32996632996633  L 7 3.79461279461279  L 10.4646464646465 0.32996632996633  C 10.6846240179574 0.109988776655443  10.9517396184063 0  11.2659932659933 0  C 11.5802469135802 0  11.8473625140292 0.109988776655443  12.0673400673401 0.32996632996633  L 13.6700336700337 1.93265993265993  C 13.8900112233446 2.15263748597082  14 2.41975308641975  14 2.73400673400673  C 14 3.04826038159371  13.8900112233446 3.31537598204265  13.6700336700337 3.53535353535353  L 10.2053872053872 7  L 13.6700336700337 10.4646464646465  Z " fill-rule="nonzero" fill="#8c8c8c" stroke="none" transform="matrix(1 0 0 1 566 33 )" />
  </g>
</svg>