<?xml version="1.0" encoding="utf-8"?>
<svg version="1.1" xmlns:xlink="http://www.w3.org/1999/xlink" width="280px" height="46px" xmlns="http://www.w3.org/2000/svg">
  <g transform="matrix(1 0 0 1 -68 -108 )">
    <path d="M 69 112  A 3 3 0 0 1 72 109 L 344 109  A 3 3 0 0 1 347 112 L 347 150  A 3 3 0 0 1 344 153 L 72 153  A 3 3 0 0 1 69 150 L 69 112  Z " fill-rule="nonzero" fill="#ffffff" stroke="none" fill-opacity="0.0980392156862745" />
    <path d="M 68.5 112  A 3.5 3.5 0 0 1 72 108.5 L 344 108.5  A 3.5 3.5 0 0 1 347.5 112 L 347.5 150  A 3.5 3.5 0 0 1 344 153.5 L 72 153.5  A 3.5 3.5 0 0 1 68.5 150 L 68.5 112  Z " stroke-width="1" stroke="#000000" fill="none" stroke-opacity="0.376470588235294" />
  </g>
</svg>