<?xml version="1.0" encoding="utf-8"?>
<svg version="1.1" xmlns:xlink="http://www.w3.org/1999/xlink" width="13px" height="13px" viewBox="10 87.5  13 13" xmlns="http://www.w3.org/2000/svg">
  <path d="M 10.5 89.5  A 1.5 1.5 0 0 1 12 88 L 21 88  A 1.5 1.5 0 0 1 22.5 89.5 L 22.5 98.5  A 1.5 1.5 0 0 1 21 100 L 12 100  A 1.5 1.5 0 0 1 10.5 98.5 L 10.5 89.5  Z " fill-rule="nonzero" fill="#ffffff" stroke="none" />
  <path d="M 10.5 89.5  A 1.5 1.5 0 0 1 12 88 L 21 88  A 1.5 1.5 0 0 1 22.5 89.5 L 22.5 98.5  A 1.5 1.5 0 0 1 21 100 L 12 100  A 1.5 1.5 0 0 1 10.5 98.5 L 10.5 89.5  Z " stroke-width="1" stroke="#8c8c8c" fill="none" />
</svg>