<?xml version="1.0" encoding="utf-8"?>
<svg version="1.1" xmlns:xlink="http://www.w3.org/1999/xlink" width="21px" height="35px" xmlns="http://www.w3.org/2000/svg">
  <g transform="matrix(1 0 0 1 -68 -178 )">
    <path d="M 19.8515625 10.6590909090909  C 20.6171875 11.4015151515151  21 12.3030303030303  21 13.3636363636364  L 21 21.6363636363636  C 21 22.1666666666667  20.80859375 22.6174242424242  20.42578125 22.9886363636364  C 20.04296875 23.3598484848485  19.578125 23.5454545454545  19.03125 23.5454545454545  C 18.484375 23.5454545454545  18.01953125 23.3598484848485  17.63671875 22.9886363636364  C 17.25390625 22.6174242424242  17.0625 22.1666666666667  17.0625 21.6363636363636  L 17.0625 14.6363636363636  L 15.75 14.6363636363636  L 15.75 32.7727272727273  C 15.75 33.3825757575758  15.5244140625 33.90625  15.0732421875 34.34375  C 14.6220703125 34.78125  14.08203125 35  13.453125 35  C 12.82421875 35  12.2841796875 34.78125  11.8330078125 34.34375  C 11.3818359375 33.90625  11.15625 33.3825757575758  11.15625 32.7727272727273  L 11.15625 23.5454545454545  L 9.84375 23.5454545454545  L 9.84375 32.7727272727273  C 9.84375 33.3825757575758  9.6181640625 33.90625  9.1669921875 34.34375  C 8.7158203125 34.78125  8.17578125 35  7.546875 35  C 6.91796875 35  6.3779296875 34.78125  5.9267578125 34.34375  C 5.4755859375 33.90625  5.25 33.3825757575758  5.25 32.7727272727273  L 5.25 14.6363636363636  L 3.9375 14.6363636363636  L 3.9375 21.6363636363636  C 3.9375 22.1666666666667  3.74609375 22.6174242424242  3.36328125 22.9886363636364  C 2.98046875 23.3598484848485  2.515625 23.5454545454545  1.96875 23.5454545454545  C 1.421875 23.5454545454545  0.95703125 23.3598484848485  0.57421875 22.9886363636364  C 0.19140625 22.6174242424242  0 22.1666666666667  0 21.6363636363636  L 0 13.3636363636364  C 0 12.3030303030303  0.3828125 11.4015151515151  1.1484375 10.6590909090909  C 1.9140625 9.91666666666666  2.84375 9.54545454545454  3.9375 10  L 17.0625 10  C 18.15625 9.54545454545454  19.0859375 9.91666666666666  19.8515625 10.6590909090909  Z M 13.75048828125 1.30255681818182  C 14.64599609375 2.17092803030303  15.09375 3.22159090909091  15.09375 4.45454545454546  C 15.09375 5.6875  14.64599609375 6.73816287878788  13.75048828125 7.60653409090909  C 12.85498046875 8.4749053030303  11.771484375 8.90909090909091  10.5 8.90909090909091  C 9.228515625 8.90909090909091  8.14501953125 8.4749053030303  7.24951171875 7.60653409090909  C 6.35400390625 6.73816287878788  5.90625 5.6875  5.90625 4.45454545454546  C 5.90625 3.22159090909091  6.35400390625 2.17092803030303  7.24951171875 1.30255681818182  C 8.14501953125 0.434185606060604  9.228515625 0  10.5 0  C 11.771484375 0  12.85498046875 0.434185606060604  13.75048828125 1.30255681818182  Z " fill-rule="nonzero" fill="#ffffff" stroke="none" transform="matrix(1 0 0 1 68 178 )" />
  </g>
</svg>