<?xml version="1.0" encoding="utf-8"?>
<svg version="1.1" xmlns:xlink="http://www.w3.org/1999/xlink" width="28px" height="26px" xmlns="http://www.w3.org/2000/svg">
  <g transform="matrix(1 0 0 1 -64 -115 )">
    <path d="M 26.5714285714286 5.19661458333333  C 26.9971988795518 5.36588541666667  27.327731092437 5.60850694444444  27.563025210084 5.92447916666667  C 28.0112044817927 6.56770833333333  28.1120448179272 7.29557291666667  27.8655462184874 8.10807291666667  L 23.2436974789916 23.4440104166667  C 23.03081232493 24.1662326388889  22.6022408963585 24.7727864583333  21.9579831932773 25.263671875  C 21.3137254901961 25.7545572916667  20.6274509803922 26  19.8991596638655 26  L 4.38655462184874 26  C 3.52380952380952 26  2.69187675070028 25.6981336805556  1.89075630252101 25.0944010416667  C 1.08963585434174 24.4906684027778  0.532212885154062 23.7486979166667  0.218487394957983 22.8684895833333  C -0.0504201680672269 22.1124131944444  -0.061624649859944 21.3958333333333  0.184873949579832 20.71875  C 0.184873949579832 20.6736111111111  0.201680672268908 20.5212673611111  0.235294117647059 20.26171875  C 0.26890756302521 20.0021701388889  0.291316526610644 19.7934027777778  0.302521008403361 19.6354166666667  C 0.313725490196078 19.5451388888889  0.296918767507003 19.423828125  0.252100840336134 19.271484375  C 0.207282913165266 19.119140625  0.19047619047619 19.0091145833333  0.201680672268908 18.94140625  C 0.224089635854342 18.8172743055556  0.26890756302521 18.6987847222222  0.336134453781513 18.5859375  C 0.403361344537815 18.4730902777778  0.495798319327731 18.3404947916667  0.613445378151261 18.1881510416667  C 0.73109243697479 18.0358072916667  0.823529411764706 17.9032118055556  0.890756302521008 17.7903645833333  C 1.1484593837535 17.3615451388889  1.40056022408964 16.8452690972222  1.64705882352941 16.2415364583333  C 1.89355742296919 15.6378038194444  2.06162464985994 15.1215277777778  2.15126050420168 14.6927083333333  C 2.18487394957983 14.5798611111111  2.18767507002801 14.4105902777778  2.15966386554622 14.1848958333333  C 2.13165266106443 13.9592013888889  2.12885154061625 13.8012152777778  2.15126050420168 13.7109375  C 2.18487394957983 13.5868055555556  2.28011204481793 13.4288194444444  2.43697478991597 13.2369791666667  C 2.59383753501401 13.0451388888889  2.6890756302521 12.9153645833333  2.72268907563025 12.84765625  C 2.95798319327731 12.44140625  3.19327731092437 11.9223090277778  3.42857142857143 11.2903645833333  C 3.66386554621849 10.6584201388889  3.80392156862745 10.1506076388889  3.84873949579832 9.76692708333333  C 3.85994397759104 9.66536458333333  3.84593837535014 9.48480902777778  3.80672268907563 9.22526041666667  C 3.76750700280112 8.96571180555556  3.7703081232493 8.80772569444444  3.81512605042017 8.75130208333333  C 3.85994397759104 8.60460069444444  3.98319327731092 8.43250868055555  4.18487394957983 8.23502604166667  C 4.38655462184874 8.03754340277778  4.50980392156863 7.91059027777778  4.5546218487395 7.85416666666667  C 4.76750700280112 7.56076388888889  5.00560224089636 7.083984375  5.26890756302521 6.423828125  C 5.53221288515406 5.763671875  5.68627450980392 5.21918402777778  5.73109243697479 4.79036458333333  C 5.74229691876751 4.70008680555555  5.72549019607843 4.55620659722222  5.68067226890756 4.35872395833333  C 5.6358543417367 4.16124131944444  5.62464985994398 4.01171875  5.64705882352941 3.91015625  C 5.66946778711485 3.81987847222222  5.71988795518207 3.71831597222222  5.79831932773109 3.60546875  C 5.87675070028011 3.49262152777778  5.97759103641457 3.36284722222222  6.10084033613445 3.21614583333333  C 6.22408963585434 3.06944444444444  6.31932773109244 2.95095486111111  6.38655462184874 2.86067708333333  C 6.47619047619048 2.72526041666667  6.56862745098039 2.55316840277778  6.66386554621849 2.34440104166667  C 6.75910364145658 2.13563368055555  6.84313725490196 1.93815104166667  6.91596638655462 1.751953125  C 6.98879551820728 1.56575520833333  7.07843137254902 1.36263020833333  7.18487394957983 1.142578125  C 7.29131652661064 0.922526041666668  7.40056022408964 0.74197048611111  7.51260504201681 0.600911458333332  C 7.62464985994398 0.459852430555552  7.77310924369748 0.327256944444442  7.95798319327731 0.203125  C 8.14285714285714 0.078993055555552  8.34453781512605 0.0141059027777775  8.56302521008403 0.00846354166666763  C 8.78151260504202 0.00282118055555203  9.04761904761905 0.0338541666666676  9.36134453781512 0.1015625  L 9.34453781512605 0.15234375  C 9.7703081232493 0.05078125  10.0560224089636 0  10.2016806722689 0  L 22.9915966386555 0  C 23.8207282913165 0  24.4593837535014 0.31597222222222  24.9075630252101 0.947916666666668  C 25.3557422969188 1.57986111111111  25.4565826330532 2.31336805555555  25.2100840336134 3.1484375  L 20.6050420168067 18.484375  C 20.2016806722689 19.8272569444444  19.8011204481793 20.693359375  19.4033613445378 21.0826822916667  C 19.0056022408964 21.4720052083333  18.2857142857143 21.6666666666667  17.2436974789916 21.6666666666667  L 2.63865546218487 21.6666666666667  C 2.33613445378151 21.6666666666667  2.12324929971989 21.7513020833333  2 21.9205729166667  C 1.87675070028011 22.1011284722222  1.87114845938375 22.34375  1.98319327731092 22.6484375  C 2.25210084033613 23.4383680555556  3.05882352941176 23.8333333333333  4.40336134453781 23.8333333333333  L 19.9159663865546 23.8333333333333  C 20.2408963585434 23.8333333333333  20.5546218487395 23.7458767361111  20.8571428571429 23.5709635416667  C 21.1596638655462 23.3960503472222  21.3557422969188 23.1618923611111  21.4453781512605 22.8684895833333  L 26.4873949579832 6.16145833333333  C 26.5658263305322 5.91319444444444  26.593837535014 5.59157986111111  26.5714285714286 5.19661458333333  Z M 10.0336134453782 4.875  L 9.68067226890756 5.95833333333333  C 9.63585434173669 6.10503472222222  9.64705882352941 6.23198784722222  9.71428571428571 6.33919270833333  C 9.78151260504202 6.44639756944444  9.89355742296919 6.5  10.0504201680672 7  L 20.2689075630252 7  C 20.4145658263305 6.5  20.5574229691877 6.44639756944444  20.6974789915966 6.33919270833333  C 20.8375350140056 6.23198784722222  20.9299719887955 6.10503472222222  20.9747899159664 5.95833333333333  L 21.327731092437 4.875  C 21.3725490196078 4.72829861111111  21.3613445378151 4.60134548611111  21.2941176470588 4.494140625  C 21.2268907563025 4.38693576388889  21.1148459383754 4.33333333333333  20.9579831932773 4.33333333333333  L 10.7394957983193 4.33333333333333  C 10.593837535014 4.33333333333333  10.4509803921569 4.38693576388889  10.3109243697479 4.494140625  C 10.1708683473389 4.60134548611111  10.078431372549 4.72829861111111  10.0336134453782 4.875  Z M 8.63865546218487 9.20833333333333  L 8.28571428571428 10.2916666666667  C 8.24089635854342 10.4383680555556  8.25210084033614 10.5653211805556  8.31932773109244 10.6725260416667  C 8.38655462184874 10.7797309027778  8.49859943977591 10.8333333333333  8.65546218487395 11  L 18.8739495798319 11  C 19.0196078431373 10.8333333333333  19.1624649859944 10.7797309027778  19.3025210084034 10.6725260416667  C 19.4425770308123 10.5653211805556  19.5350140056022 10.4383680555556  19.5798319327731 10.2916666666667  L 19.9327731092437 9.20833333333333  C 19.9775910364146 9.06163194444444  19.9663865546218 8.93467881944444  19.8991596638655 8.82747395833333  C 19.8319327731092 8.72026909722222  19.7198879551821 8.66666666666667  19.563025210084 9  L 9.34453781512605 9  C 9.19887955182073 8.66666666666667  9.05602240896359 8.72026909722222  8.91596638655462 8.82747395833333  C 8.77591036414566 8.93467881944444  8.68347338935574 9.06163194444444  8.63865546218487 9.20833333333333  Z " fill-rule="nonzero" fill="#ffffff" stroke="none" fill-opacity="0.980392156862745" transform="matrix(1 0 0 1 64 115 )" />
  </g>
</svg>