<?xml version="1.0" encoding="utf-8"?>
<svg version="1.1" xmlns:xlink="http://www.w3.org/1999/xlink" width="34px" height="18px" xmlns="http://www.w3.org/2000/svg">
  <g transform="matrix(1 0 0 1 -61 -252 )">
    <path d="M 10.8131147540984 14.4497816593886  C 10.8131147540984 14.5633187772926  10.7511839708561 14.6637554585153  10.6273224043716 14.7510917030568  L 9.69836065573771 15.4061135371179  C 9.57449908925319 15.4934497816594  9.43205828779599 15.5371179039301  9.27103825136612 15.5371179039301  C 9.11001821493625 15.5371179039301  8.96757741347905 15.4934497816594  8.84371584699454 15.4061135371179  L 0.185792349726776 9.30131004366812  C 0.0619307832422587 9.21397379912664  0 9.11353711790393  0 9  C 0 8.88646288209607  0.0619307832422587 8.78602620087336  0.185792349726776 8.69868995633188  L 8.84371584699454 2.5938864628821  C 8.96757741347905 2.50655021834061  9.11001821493625 2.46288209606987  9.27103825136612 2.46288209606987  C 9.43205828779599 2.46288209606987  9.57449908925319 2.50655021834061  9.69836065573771 2.5938864628821  L 10.6273224043716 3.24890829694323  C 10.7511839708561 3.33624454148471  10.8131147540984 3.43668122270742  10.8131147540984 3.55021834061135  C 10.8131147540984 3.66375545851528  10.7511839708561 3.76419213973799  10.6273224043716 3.85152838427948  L 3.32568306010929 9  L 10.6273224043716 14.1484716157205  C 10.7511839708561 14.235807860262  10.8131147540984 14.3362445414847  10.8131147540984 14.4497816593886  Z M 21.5612021857923 0.451965065502183  C 21.6417122040073 0.552401746724889  21.6571948998179 0.659388646288209  21.607650273224 0.772925764192139  L 14.6775956284153 17.6855895196507  C 14.6280510018215 17.7991266375546  14.532058287796 17.8842794759825  14.3896174863388 17.9410480349345  C 14.2471766848816 17.9978165938865  14.1016393442623 18.0087336244542  13.9530054644809 17.9737991266376  L 12.8010928961749 17.7510917030568  C 12.640072859745 17.7161572052402  12.5193078324226 17.6484716157205  12.4387978142076 17.5480349344978  C 12.3582877959927 17.4475982532751  12.3428051001821 17.3406113537118  12.392349726776 17.2270742358079  L 19.3224043715847 0.314410480349346  C 19.3719489981785 0.200873362445413  19.467941712204 0.115720524017466  19.6103825136612 0.0589519650655028  C 19.7528233151184 0.00218340611353551  19.8983606557377 -0.00873362445415005  20.0469945355191 0.0262008733624461  L 21.1989071038251 0.248908296943232  C 21.359927140255 0.283842794759823  21.4806921675774 0.351528384279475  21.5612021857923 0.451965065502183  Z M 34 9  C 34 9.11353711790393  33.9380692167577 9.21397379912664  33.8142076502732 9.30131004366812  L 25.1562841530055 15.4061135371179  C 25.032422586521 15.4934497816594  24.8899817850638 15.5371179039301  24.7289617486339 15.5371179039301  C 24.567941712204 15.5371179039301  24.4255009107468 15.4934497816594  24.3016393442623 15.4061135371179  L 23.3726775956284 14.7510917030568  C 23.2488160291439 14.6637554585153  23.1868852459016 14.5633187772926  23.1868852459016 14.4497816593886  C 23.1868852459016 14.3362445414847  23.2488160291439 14.235807860262  23.3726775956284 14.1484716157205  L 30.6743169398907 9  L 23.3726775956284 3.85152838427948  C 23.2488160291439 3.76419213973799  23.1868852459016 3.66375545851528  23.1868852459016 3.55021834061135  C 23.1868852459016 3.43668122270742  23.2488160291439 3.33624454148471  23.3726775956284 3.24890829694323  L 24.3016393442623 2.5938864628821  C 24.4255009107468 2.50655021834061  24.567941712204 2.46288209606987  24.7289617486339 2.46288209606987  C 24.8899817850638 2.46288209606987  25.032422586521 2.50655021834061  25.1562841530055 2.5938864628821  L 33.8142076502732 8.69868995633188  C 33.9380692167577 8.78602620087336  34 8.88646288209607  34 9  Z " fill-rule="nonzero" fill="#ffffff" stroke="none" fill-opacity="0.972549019607843" transform="matrix(1 0 0 1 61 252 )" />
  </g>
</svg>